<svg
      xmlns="http://www.w3.org/2000/svg"
      x="0"
      y="0"
      baseProfile="tiny"
      version="1.2"
      viewBox="0 0 256 188"
      xmlSpace="preserve"
    >
      <path d="M63 133c-13 0-23.5 10.5-23.5 23.5S50 180 63 180s23.5-10.5 23.5-23.5S76 133 63 133zm0 32.4c-4.9 0-9-4.1-9-9s4.1-9 9-9 9 4.1 9 9c0 5-4 9-9 9zM210.8 132c-13 0-23.5 10.5-23.5 23.5s10.5 23.5 23.5 23.5 23.5-10.5 23.5-23.5-10.5-23.5-23.5-23.5zm0 32.4c-4.9 0-9-4.1-9-9s4.1-9 9-9 9 4.1 9 9c0 5-4 9-9 9zM-.5 143.1c0 4.6 3.7 8.2 8.2 8.2h22.6c.9 0 1.7-.7 1.9-1.5 2.6-14.7 15.4-24.9 30.8-24.9s28.3 10.2 30.8 24.9c.2.9.9 1.5 1.9 1.5H129.9V115H-.5v28.1zm254.1-8.6h-5v-22c0-7.5-6.1-13.6-13.7-13.6h-24.3c-.5 0-1-.3-1.4-.6l-38-37c-1.7-1.7-4.1-2.7-6.6-2.8h-27.5v92.8H178c.9 0 1.7-.7 1.9-1.5 2.6-14.7 15.4-25.9 30.8-25.9s28.3 11.2 30.8 25.9c.2.9.9 1.5 1.9 1.5h3.2c4.9 0 8.7-3.9 8.7-8.7v-6.3c.2-.9-.7-1.8-1.7-1.8zM191.1 99h-41.4c-1 0-1.9-.9-1.9-1.9V70.7c0-1 .9-1.9 1.9-1.9h13.9c.5 0 1 .3 1.5.6l27.5 26.3c.9 1.3.1 3.3-1.5 3.3zM57.8 101.5H17.1V60.8h15.7v13h9.3v-13h15.7v40.7zm53.1 0H70.3V60.8H86v13h9.3v-13H111v40.7zM84.7 48.3H44V7.6h15.7v13H69v-13h15.7v40.7z"></path>
    </svg>